:SAMPLES-PER-SECOND 30
:FULLY-SPECIFIED
:DEGREES
503
root  29.7392 38.4803 7.37147 -179.341 76.2333 -171.783
RightUpLeg  -4.07451 -9.9975 3.34305
RightLeg  23.6807 -1.99266 -0.663767
RightFoot  -10.0722 0.00626896 -6.68232
RightToes  5.82063e-011 0 -3.6325e-017
Spine  9.05418 -1.78408 13.6285
Spine1  11.9083 1.11612 -4.66394
HEad  -4.79678 -6.25715 -5.50299
LeftShoulder1  0.712623 1.33939 -26.7348
LeftArm  -4.83021 -14.7627 -45.2504
LeftForeArm  25.3559 -7.67842 -8.14472
LeftHand  -0.0108171 3.03327 -0.285349
RightShoulder  -0.0557185 -3.66238 22.4904
RightArm  8.11826 23.6445 43.9983
RightForeArm  -9.38617 17.0821 5.08701
RightHand  -1.12865 6.52781 -11.2785
LeftUpLeg  -16.5168 0.0441145 4.43177
LeftLeg  49.2514 -2.54684 -2.77327
LeftFoot  -1.40959 0.0863369 -0.908978
LeftToes  2.58842e-009 -1.78069e-010 3.24654e-012
504
root  30.6676 38.5895 7.18842 -179.833 77.3485 -172.587
RightUpLeg  -2.25676 -9.2575 2.9471
RightLeg  22.6646 -1.53099 -0.377945
RightFoot  -10.9163 -0.0493267 -6.53739
RightToes  5.82063e-011 0 -3.6325e-017
Spine  8.83039 -1.21713 12.7888
Spine1  11.9303 1.2809 -4.17182
HEad  -5.15007 -6.05967 -5.99722
LeftShoulder1  0.690792 1.43903 -27.3147
LeftArm  -5.05433 -19.1834 -44.6467
LeftForeArm  23.377 -8.44238 -7.91601
LeftHand  -0.0133162 3.33504 -0.29097
RightShoulder  0.118457 -3.03657 20.0021
RightArm  5.64584 29.1207 44.6709
RightForeArm  -8.51956 14.3334 5.04217
RightHand  -1.05352 6.86349 -10.2878
LeftUpLeg  -17.1512 0.257658 4.39177
LeftLeg  38.5036 -2.56951 -1.79981
LeftFoot  -1.37513 0.195799 -2.1317
LeftToes  2.58842e-009 -1.78069e-010 3.24654e-012
505
root  31.6014 38.6558 6.99004 -177.697 78.1605 -170.188
RightUpLeg  0.518656 -8.50264 3.22711
RightLeg  20.8017 -1.74822 -0.304345
RightFoot  -11.7725 -0.103845 -6.43752
RightToes  5.82063e-011 0 -3.6325e-017
Spine  8.82706 -1.21367 13.2303
Spine1  12.1243 1.49549 -5.49062
HEad  -5.26458 -5.17419 -5.48512
LeftShoulder1  0.784042 1.05745 -25.8847
LeftArm  -5.07731 -22.9692 -44.783
LeftForeArm  20.4222 -9.59454 -7.61013
LeftHand  -0.0278798 3.37876 0.568974
RightShoulder  0.189597 -2.74972 19.4207
RightArm  4.74658 35.3339 44.3054
RightForeArm  -8.52249 11.6809 5.31062
RightHand  -0.973603 6.3002 -9.9675
LeftUpLeg  -16.2151 0.608093 5.13985
LeftLeg  26.0524 -2.7002 -1.19685
LeftFoot  -0.241192 0.399035 -4.09104
LeftToes  2.58842e-009 -1.78069e-010 3.24654e-012
506
root  32.4908 38.6914 6.77846 -175.464 79.3008 -168.127
RightUpLeg  2.44389 -7.81961 3.34039
RightLeg  19.5533 -1.25787 -0.156397
RightFoot  -12.5427 -0.151344 -6.3458
RightToes  5.82063e-011 0 -3.6325e-017
Spine  8.69926 -0.938995 13.6493
Spine1  12.2438 2.00379 -6.76044
HEad  -5.32333 -4.42188 -4.9051
LeftShoulder1  0.951101 0.460888 -25.0136
LeftArm  -5.43698 -27.0377 -44.6916
LeftForeArm  17.7165 -10.6749 -7.17677
LeftHand  -0.0375967 3.86581 1.31011
RightShoulder  0.286983 -2.32715 18.3769
RightArm  3.89896 41.0895 43.586
RightForeArm  -8.08058 9.28446 5.47306
RightHand  -0.869853 6.77376 -8.63389
LeftUpLeg  -15.0388 1.67748 5.22663
LeftLeg  13.4599 -2.926 -0.253268
LeftFoot  1.32392 0.544754 -4.98441
LeftToes  2.58842e-009 -1.78069e-010 3.24654e-012
507
root  33.4195 38.6504 6.55565 -172.304 80.2459 -164.758
RightUpLeg  4.57608 -7.0683 3.65394
RightLeg  18.8196 -1.002 -0.240482
RightFoot  -13.706 -0.213212 -5.88047
RightToes  5.82063e-011 0 -3.6325e-017
Spine  8.45629 -0.774085 13.2308
Spine1  13.0829 2.16917 -7.00645
HEad  -3.47082 -5.64583 -4.98354
LeftShoulder1  1.02266 0.158927 -24.3768
LeftArm  -5.77354 -31.4703 -44.48
LeftForeArm  15.5067 -11.4531 -6.8323
LeftHand  -0.0310412 4.90137 1.13856
RightShoulder  0.411393 -1.74554 16.9276
RightArm  2.66684 46.5566 43.3846
RightForeArm  -7.20548 6.71177 5.22207
RightHand  -0.751978 7.19782 -7.26367
LeftUpLeg  -13.5376 4.91304 4.89358
LeftLeg  3.78547 -7.07531 0.0729266
LeftFoot  1.89839 0.720424 -6.31285
LeftToes  2.58842e-009 -1.78069e-010 3.24654e-012
508
root  34.3447 38.4709 6.28922 -170.327 80.8807 -162.177
RightUpLeg  6.41483 -6.37929 3.77896
RightLeg  19.6794 -1.15276 -0.58292
RightFoot  -15.6796 -0.300228 -5.10222
RightToes  5.82063e-011 0 -3.6325e-017
Spine  8.78952 -0.921704 13.0192
Spine1  13.3782 2.38855 -8.19326
HEad  -3.3887 -5.74351 -2.99613
LeftShoulder1  1.14459 -0.443348 -22.6578
LeftArm  -6.3041 -35.6885 -44.4796
LeftForeArm  13.5858 -11.887 -6.51697
LeftHand  -0.0357565 4.23967 1.59293
RightShoulder  0.517755 -1.23964 16.4227
RightArm  1.25548 50.9484 43.2328
RightForeArm  -6.91566 4.62721 4.81742
RightHand  -0.664281 6.22513 -6.9608
LeftUpLeg  -12.6262 5.62661 4.71372
LeftLeg  0.0126304 -10.1502 -0.051084
LeftFoot  2.32039 0.938531 -7.95592
LeftToes  2.58842e-009 -1.78069e-010 3.24654e-012
509
root  35.2769 38.2368 6.00339 -170.145 81.0761 -161.679
RightUpLeg  7.54074 -5.37706 3.77272
RightLeg  21.4935 -1.97697 -1.09009
RightFoot  -17.7905 -0.346834 -4.05844
RightToes  5.82063e-011 0 -3.6325e-017
Spine  9.1879 -1.01048 11.6178
Spine1  13.2252 2.12047 -7.88409
HEad  -2.59887 -5.72809 -1.79271
LeftShoulder1  1.23624 -0.800797 -22.3843
LeftArm  -7.48874 -40.2819 -44.1465
LeftForeArm  13.2487 -11.3994 -6.27794
LeftHand  -0.0388068 3.24771 1.11692
RightShoulder  0.645066 -0.456617 14.3966
RightArm  0.289645 54.1282 43.6679
RightForeArm  -7.83339 2.40517 4.47651
RightHand  -0.635479 5.93908 -6.82015
LeftUpLeg  -13.3367 4.87484 3.73445
LeftLeg  2.83808 -13.2871 -0.27762
LeftFoot  6.93896 0.805483 -5.40764
LeftToes  2.58842e-009 -1.78069e-010 3.24654e-012
510
root  36.2113 37.9257 5.70015 -172.049 81.6106 -163.361
RightUpLeg  7.57048 -3.98756 3.31029
RightLeg  25.4468 -2.52865 -1.54619
RightFoot  -20.1166 -0.256143 -1.61459
RightToes  5.82063e-011 0 -3.6325e-017
Spine  9.61859 -0.764738 10.105
Spine1  13.3503 2.29705 -7.86173
HEad  -2.6722 -5.96243 -0.344549
LeftShoulder1  1.30576 -1.16958 -21.5813
LeftArm  -7.99555 -44.9747 -44.8157
LeftForeArm  12.5343 -10.8997 -6.10222
LeftHand  -0.058098 3.0394 2.15615
RightShoulder  0.680582 -0.137028 13.3122
RightArm  -1.31338 56.9702 43.1761
RightForeArm  -7.56856 0.942961 3.98492
RightHand  -0.527171 4.80004 -6.29589
LeftUpLeg  -14.4992 3.60311 2.85312
LeftLeg  7.72167 -13.5126 -1.08133
LeftFoot  12.8858 0.427934 -2.25822
LeftToes  2.58842e-009 -1.78069e-010 3.24654e-012
